<svg aria-hidden="true" style="position: absolute; width: 0; height: 0; overflow: hidden;" version="1.1" xmlns="http://www.w3.org/2000/svg" xmlns:xlink="http://www.w3.org/1999/xlink">
    <defs>
        <symbol id="" viewBox="0 0 32 32">
            <path d="M16.944 17.6l-3.68 3.664c-0.15 0.149-0.269 0.326-0.35 0.521s-0.123 0.404-0.123 0.615 0.042 0.42 0.123 0.615c0.081 0.195 0.2 0.372 0.35 0.521 0.149 0.15 0.326 0.269 0.521 0.35s0.404 0.123 0.615 0.123c0.211 0 0.42-0.042 0.615-0.123s0.372-0.2 0.521-0.35l6.4-6.4c0.146-0.152 0.26-0.332 0.336-0.528 0.16-0.39 0.16-0.826 0-1.216-0.076-0.196-0.19-0.376-0.336-0.528l-6.4-6.4c-0.149-0.149-0.326-0.268-0.521-0.348s-0.404-0.122-0.615-0.122c-0.211 0-0.42 0.042-0.615 0.122s-0.372 0.199-0.521 0.348c-0.149 0.149-0.268 0.326-0.348 0.521s-0.122 0.404-0.122 0.615c0 0.211 0.042 0.42 0.122 0.615s0.199 0.372 0.348 0.521l3.68 3.664h-15.344c-0.424 0-0.831 0.169-1.131 0.469s-0.469 0.707-0.469 1.131c0 0.424 0.169 0.831 0.469 1.131s0.707 0.469 1.131 0.469h15.344zM16 0c-2.99-0.013-5.924 0.812-8.47 2.381s-4.6 3.821-5.93 6.499c-0.191 0.382-0.222 0.824-0.087 1.229s0.425 0.74 0.807 0.931c0.382 0.191 0.824 0.222 1.229 0.087s0.74-0.425 0.931-0.807c1.011-2.043 2.55-3.778 4.457-5.027s4.112-1.966 6.389-2.077c2.277-0.111 4.542 0.388 6.561 1.445s3.72 2.634 4.926 4.569c1.206 1.934 1.873 4.156 1.933 6.434s-0.489 4.532-1.592 6.527c-1.102 1.995-2.717 3.66-4.678 4.822s-4.197 1.779-6.476 1.788c-2.386 0.010-4.726-0.652-6.753-1.912s-3.657-3.064-4.704-5.208c-0.191-0.382-0.526-0.672-0.931-0.807s-0.847-0.104-1.229 0.087c-0.382 0.191-0.672 0.526-0.807 0.931s-0.104 0.847 0.087 1.229c1.269 2.553 3.196 4.72 5.583 6.278s5.147 2.45 7.995 2.584 5.679-0.496 8.202-1.823c2.523-1.328 4.645-3.305 6.147-5.728s2.33-5.203 2.397-8.052c0.068-2.85-0.628-5.666-2.013-8.157s-3.412-4.567-5.869-6.012c-2.457-1.446-5.256-2.208-8.106-2.21z"></path>
        </symbol>
        <symbol id="icon-accouunt" viewBox="0 0 32 32">
            <path d="M21.942 17.135c1.576-1.234 2.727-2.925 3.292-4.839s0.516-3.956-0.141-5.841-1.887-3.52-3.521-4.677c-1.634-1.157-3.59-1.779-5.596-1.779s-3.962 0.622-5.596 1.779c-1.634 1.157-2.865 2.792-3.521 4.677s-0.705 3.927-0.141 5.841c0.565 1.914 1.715 3.605 3.292 4.839-2.701 1.076-5.058 2.861-6.819 5.165s-2.861 5.039-3.182 7.916c-0.023 0.21-0.005 0.422 0.055 0.625s0.158 0.392 0.291 0.557c0.268 0.333 0.659 0.546 1.085 0.593s0.854-0.077 1.189-0.344 0.549-0.655 0.596-1.079c0.353-3.126 1.852-6.013 4.21-8.109s5.41-3.255 8.573-3.255 6.215 1.159 8.573 3.255c2.358 2.096 3.857 4.983 4.21 8.109 0.044 0.393 0.232 0.756 0.529 1.019s0.681 0.407 1.079 0.405h0.177c0.422-0.048 0.807-0.26 1.072-0.59s0.388-0.75 0.343-1.169c-0.322-2.884-1.428-5.627-3.198-7.934s-4.139-4.092-6.851-5.162zM15.976 16c-1.272 0-2.516-0.375-3.573-1.078s-1.882-1.702-2.369-2.871c-0.487-1.169-0.614-2.455-0.366-3.696s0.861-2.38 1.76-3.275c0.899-0.895 2.045-1.504 3.293-1.751s2.541-0.12 3.716 0.364c1.175 0.484 2.18 1.304 2.886 2.356s1.084 2.289 1.084 3.554c0 1.696-0.678 3.323-1.884 4.523s-2.842 1.874-4.548 1.874z"></path>
        </symbol>
        <symbol id="icon-round-accept" viewBox="0 0 32 32">
            <path d="M20.352 10.864l-6.864 6.88-2.64-2.64c-0.143-0.168-0.32-0.304-0.518-0.4s-0.415-0.15-0.635-0.159c-0.22-0.008-0.44 0.029-0.645 0.109s-0.392 0.202-0.548 0.358c-0.156 0.156-0.278 0.342-0.358 0.548s-0.118 0.425-0.109 0.645c0.008 0.22 0.062 0.436 0.159 0.635s0.232 0.375 0.4 0.518l3.76 3.776c0.149 0.148 0.327 0.266 0.522 0.345s0.404 0.12 0.614 0.119c0.42-0.002 0.822-0.168 1.12-0.464l8-8c0.15-0.149 0.269-0.326 0.35-0.521s0.123-0.404 0.123-0.615c0-0.211-0.042-0.42-0.123-0.615s-0.2-0.372-0.35-0.521c-0.3-0.298-0.705-0.465-1.128-0.465s-0.828 0.167-1.128 0.465zM16 0c-3.165 0-6.258 0.938-8.889 2.696s-4.682 4.257-5.893 7.181c-1.211 2.924-1.528 6.141-0.91 9.244s2.141 5.955 4.379 8.192c2.238 2.238 5.089 3.761 8.192 4.379s6.321 0.3 9.244-0.911c2.924-1.211 5.423-3.262 7.181-5.893s2.696-5.725 2.696-8.889c0-2.101-0.414-4.182-1.218-6.123s-1.983-3.705-3.468-5.191c-1.486-1.486-3.25-2.664-5.191-3.468s-4.022-1.218-6.123-1.218zM16 28.8c-2.532 0-5.006-0.751-7.111-2.157s-3.746-3.406-4.714-5.744-1.222-4.913-0.728-7.396c0.494-2.483 1.713-4.764 3.503-6.554s4.071-3.009 6.554-3.503c2.483-0.494 5.057-0.24 7.396 0.728s4.338 2.609 5.744 4.714c1.406 2.105 2.157 4.58 2.157 7.111 0 3.395-1.348 6.651-3.749 9.051s-5.656 3.749-9.051 3.749z"></path>
        </symbol>
        <symbol id="icon-wallet" viewBox="0 0 36 32">
            <path d="M30.222 7.111h-1.778v-1.778c0-1.415-0.562-2.771-1.562-3.771s-2.357-1.562-3.771-1.562h-17.778c-1.415 0-2.771 0.562-3.771 1.562s-1.562 2.357-1.562 3.771v21.333c0 1.414 0.562 2.771 1.562 3.771s2.357 1.562 3.771 1.562h24.889c1.414 0 2.771-0.562 3.771-1.562s1.562-2.357 1.562-3.771v-14.222c0-1.415-0.562-2.771-1.562-3.771s-2.357-1.562-3.771-1.562zM5.333 3.556h17.778c0.471 0 0.924 0.187 1.257 0.521s0.521 0.786 0.521 1.257v1.778h-19.556c-0.471 0-0.924-0.187-1.257-0.521s-0.521-0.786-0.521-1.257c0-0.471 0.187-0.924 0.521-1.257s0.786-0.521 1.257-0.521zM32 21.333h-1.778c-0.471 0-0.924-0.187-1.257-0.521s-0.521-0.786-0.521-1.257c0-0.471 0.187-0.924 0.521-1.257s0.786-0.521 1.257-0.521h1.778v3.556zM32 14.222h-1.778c-1.414 0-2.771 0.562-3.771 1.562s-1.562 2.357-1.562 3.771c0 1.414 0.562 2.771 1.562 3.771s2.357 1.562 3.771 1.562h1.778v1.778c0 0.471-0.187 0.924-0.521 1.257s-0.786 0.521-1.257 0.521h-24.889c-0.471 0-0.924-0.187-1.257-0.521s-0.521-0.786-0.521-1.257v-16.302c0.571 0.201 1.172 0.303 1.778 0.302h24.889c0.471 0 0.924 0.187 1.257 0.521s0.521 0.786 0.521 1.257v1.778z"></path>
        </symbol>
        <symbol id="icon-Vector-4" viewBox="0 0 32 32">
            <path d="M29.592 20.96c-0.38-0.189-0.819-0.219-1.221-0.084s-0.734 0.424-0.923 0.804c-1.013 2.045-2.554 3.782-4.464 5.032s-4.119 1.965-6.398 2.074c-2.28 0.108-4.547-0.394-6.567-1.457s-3.719-2.645-4.921-4.585c-1.202-1.94-1.864-4.166-1.917-6.447s0.505-4.536 1.616-6.529 2.735-3.653 4.703-4.808c1.968-1.155 4.21-1.762 6.492-1.76 2.386-0.010 4.726 0.652 6.752 1.912s3.657 3.065 4.704 5.208c0.191 0.382 0.526 0.672 0.931 0.807s0.847 0.104 1.229-0.087c0.382-0.191 0.672-0.526 0.807-0.931s0.104-0.847-0.087-1.229c-1.605-3.231-4.256-5.824-7.52-7.359s-6.953-1.922-10.465-1.097c-3.512 0.825-6.643 2.812-8.883 5.639s-3.46 6.329-3.46 9.937c0 3.608 1.219 7.11 3.46 9.937s5.371 4.815 8.883 5.639c3.512 0.825 7.2 0.438 10.465-1.097s5.915-4.128 7.52-7.359c0.095-0.19 0.152-0.397 0.167-0.609s-0.013-0.424-0.082-0.626-0.176-0.387-0.317-0.545c-0.141-0.159-0.312-0.288-0.504-0.38zM30.392 14.4h-15.344l3.68-3.664c0.149-0.149 0.268-0.326 0.348-0.521s0.122-0.404 0.122-0.615-0.042-0.42-0.122-0.615c-0.081-0.195-0.199-0.372-0.348-0.521s-0.326-0.268-0.521-0.348c-0.195-0.081-0.404-0.122-0.615-0.122s-0.42 0.042-0.615 0.122c-0.195 0.081-0.372 0.199-0.521 0.348l-6.4 6.4c-0.146 0.152-0.26 0.332-0.336 0.528-0.16 0.39-0.16 0.826 0 1.216 0.076 0.196 0.19 0.376 0.336 0.528l6.4 6.4c0.149 0.15 0.326 0.269 0.521 0.35s0.404 0.123 0.615 0.123 0.42-0.042 0.615-0.123c0.195-0.081 0.372-0.2 0.521-0.35 0.15-0.149 0.269-0.326 0.35-0.521s0.123-0.404 0.123-0.615-0.042-0.42-0.123-0.615c-0.081-0.195-0.2-0.372-0.35-0.521l-3.68-3.664h15.344c0.424 0 0.831-0.168 1.131-0.469s0.469-0.707 0.469-1.131-0.169-0.831-0.469-1.131c-0.3-0.3-0.707-0.469-1.131-0.469z"></path>
        </symbol>
        <symbol id="icon-settings" viewBox="0 0 32 32">
            <path d="M30.912 12.080l-3.024-1.008 1.424-2.848c0.144-0.298 0.193-0.634 0.138-0.96s-0.209-0.628-0.442-0.864l-3.408-3.408c-0.236-0.237-0.541-0.393-0.871-0.448s-0.669-0.004-0.969 0.144l-2.848 1.424-1.008-3.024c-0.106-0.315-0.308-0.589-0.578-0.784s-0.593-0.301-0.926-0.304h-4.8c-0.335-0.001-0.663 0.104-0.935 0.299s-0.477 0.471-0.585 0.789l-1.008 3.024-2.848-1.424c-0.298-0.144-0.634-0.193-0.96-0.138s-0.628 0.209-0.864 0.442l-3.408 3.408c-0.237 0.236-0.393 0.541-0.448 0.871s-0.004 0.669 0.144 0.969l1.424 2.848-3.024 1.008c-0.315 0.106-0.589 0.309-0.784 0.578s-0.301 0.593-0.304 0.926v4.8c-0.001 0.335 0.104 0.663 0.299 0.935s0.471 0.477 0.789 0.585l3.024 1.008-1.424 2.848c-0.144 0.298-0.193 0.634-0.138 0.96s0.209 0.628 0.442 0.864l3.408 3.408c0.236 0.237 0.541 0.393 0.871 0.448s0.669 0.004 0.969-0.144l2.848-1.424 1.008 3.024c0.107 0.318 0.312 0.594 0.585 0.789s0.6 0.3 0.935 0.299h4.8c0.335 0.001 0.663-0.104 0.935-0.299s0.477-0.471 0.585-0.789l1.008-3.024 2.848 1.424c0.296 0.141 0.628 0.187 0.952 0.133s0.622-0.207 0.856-0.437l3.408-3.408c0.237-0.236 0.393-0.541 0.448-0.871s0.004-0.669-0.144-0.969l-1.424-2.848 3.024-1.008c0.315-0.106 0.589-0.308 0.784-0.578s0.301-0.593 0.304-0.926v-4.8c0.001-0.335-0.104-0.663-0.299-0.935s-0.471-0.477-0.789-0.585zM28.8 17.248l-1.92 0.64c-0.441 0.143-0.847 0.381-1.187 0.696s-0.608 0.701-0.785 1.13c-0.177 0.429-0.258 0.892-0.238 1.356s0.141 0.917 0.354 1.33l0.912 1.824-1.76 1.76-1.776-0.96c-0.41-0.204-0.86-0.318-1.318-0.334s-0.914 0.067-1.338 0.243c-0.423 0.176-0.804 0.441-1.116 0.777s-0.548 0.735-0.693 1.17l-0.64 1.92h-2.544l-0.64-1.92c-0.143-0.441-0.381-0.847-0.696-1.187s-0.701-0.608-1.13-0.785c-0.429-0.177-0.892-0.258-1.355-0.238s-0.918 0.141-1.33 0.354l-1.824 0.912-1.76-1.76 0.96-1.776c0.213-0.412 0.334-0.866 0.354-1.33s-0.061-0.926-0.238-1.356c-0.177-0.429-0.444-0.815-0.785-1.13s-0.746-0.553-1.187-0.696l-1.92-0.64v-2.496l1.92-0.64c0.442-0.143 0.847-0.381 1.187-0.696s0.608-0.701 0.785-1.13c0.177-0.429 0.258-0.892 0.238-1.355s-0.141-0.918-0.354-1.33l-0.912-1.776 1.76-1.76 1.776 0.912c0.412 0.213 0.866 0.334 1.33 0.354s0.926-0.061 1.355-0.238c0.429-0.177 0.815-0.444 1.13-0.785s0.553-0.746 0.696-1.187l0.64-1.92h2.496l0.64 1.92c0.143 0.442 0.381 0.847 0.696 1.187s0.701 0.608 1.13 0.785c0.429 0.177 0.892 0.258 1.356 0.238s0.917-0.141 1.33-0.354l1.824-0.912 1.76 1.76-0.96 1.776c-0.204 0.41-0.318 0.86-0.334 1.318s0.067 0.914 0.243 1.338c0.176 0.423 0.441 0.804 0.777 1.116s0.735 0.548 1.17 0.693l1.92 0.64v2.544zM16 9.6c-1.266 0-2.503 0.375-3.556 1.079s-1.873 1.703-2.357 2.872c-0.484 1.169-0.611 2.456-0.364 3.698s0.857 2.382 1.752 3.277 2.035 1.505 3.277 1.752c1.242 0.247 2.528 0.12 3.698-0.364s2.169-1.305 2.872-2.357 1.079-2.29 1.079-3.556c0-1.697-0.674-3.325-1.875-4.525s-2.828-1.875-4.525-1.875zM16 19.2c-0.633 0-1.252-0.188-1.778-0.539s-0.936-0.851-1.179-1.436c-0.242-0.585-0.306-1.228-0.182-1.849s0.428-1.191 0.876-1.638c0.448-0.448 1.018-0.752 1.638-0.876s1.264-0.060 1.849 0.182c0.585 0.242 1.084 0.652 1.436 1.179s0.539 1.145 0.539 1.778c0 0.849-0.337 1.663-0.937 2.263s-1.414 0.937-2.263 0.937z"></path>
        </symbol>
        <symbol id="icon-mute-messages" viewBox="0 0 32 32">
            <path d="M14.519 6.599c0.485-0.131 0.986-0.195 1.488-0.192 1.697 0 3.325 0.674 4.525 1.875s1.875 2.828 1.875 4.525v2.144c0 0.424 0.168 0.831 0.469 1.131s0.707 0.469 1.131 0.469 0.831-0.169 1.131-0.469c0.3-0.3 0.469-0.707 0.469-1.131v-2.144c-0.002-2.267-0.807-4.46-2.271-6.191s-3.494-2.887-5.729-3.265v-1.744c0-0.424-0.169-0.831-0.469-1.131s-0.707-0.469-1.131-0.469c-0.424 0-0.831 0.169-1.131 0.469s-0.469 0.707-0.469 1.131v1.76l-0.72 0.128c-0.412 0.11-0.763 0.38-0.976 0.749s-0.271 0.808-0.16 1.219c0.11 0.412 0.38 0.763 0.749 0.976s0.808 0.271 1.219 0.16zM31.543 29.271l-28.8-28.8c-0.301-0.301-0.71-0.471-1.136-0.471s-0.835 0.169-1.136 0.471c-0.301 0.301-0.471 0.71-0.471 1.136s0.169 0.835 0.471 1.136l6.592 6.576c-0.434 1.112-0.656 2.295-0.656 3.488v5.088c-0.934 0.33-1.742 0.941-2.315 1.749s-0.882 1.773-0.885 2.763v3.2c0 0.424 0.169 0.831 0.469 1.131s0.707 0.469 1.131 0.469h5.024c0.368 1.356 1.173 2.553 2.289 3.406s2.482 1.316 3.887 1.316c1.405 0 2.771-0.462 3.887-1.316s1.92-2.050 2.289-3.406h2.768l4.32 4.336c0.149 0.15 0.326 0.269 0.521 0.35s0.404 0.123 0.615 0.123 0.42-0.042 0.615-0.123c0.195-0.081 0.372-0.2 0.521-0.35 0.15-0.149 0.269-0.326 0.35-0.521s0.123-0.404 0.123-0.615-0.042-0.42-0.123-0.615c-0.081-0.195-0.2-0.372-0.35-0.521zM9.607 12.807c-0.024-0.293-0.024-0.587 0-0.88l5.744 5.68h-5.744v-4.8zM16.007 28.807c-0.558-0.003-1.106-0.153-1.589-0.434s-0.884-0.683-1.163-1.166h5.504c-0.279 0.484-0.68 0.886-1.163 1.166s-1.031 0.43-1.589 0.434zM6.407 24.007v-1.6c0-0.424 0.169-0.831 0.469-1.131s0.707-0.469 1.131-0.469h10.544l3.2 3.2h-15.344z"></path>
        </symbol>
        <symbol id="icon-messages" viewBox="0 0 26 32">
            <path d="M22.4 17.888v-5.088c-0.002-2.267-0.807-4.46-2.271-6.191s-3.494-2.887-5.729-3.265v-1.744c0-0.424-0.169-0.831-0.469-1.131s-0.707-0.469-1.131-0.469c-0.424 0-0.831 0.169-1.131 0.469s-0.469 0.707-0.469 1.131v1.744c-2.235 0.378-4.265 1.535-5.729 3.265s-2.269 3.924-2.271 6.191v5.088c-0.934 0.33-1.742 0.941-2.315 1.749s-0.882 1.773-0.885 2.763v3.2c0 0.424 0.169 0.831 0.469 1.131s0.707 0.469 1.131 0.469h5.024c0.368 1.356 1.173 2.553 2.289 3.406s2.482 1.316 3.887 1.316 2.771-0.462 3.887-1.316c1.116-0.853 1.92-2.050 2.289-3.406h5.024c0.424 0 0.831-0.169 1.131-0.469s0.469-0.707 0.469-1.131v-3.2c-0.003-0.99-0.312-1.956-0.885-2.763s-1.382-1.419-2.315-1.749zM6.4 12.8c0-1.697 0.674-3.325 1.874-4.526s2.828-1.875 4.526-1.875c1.697 0 3.325 0.674 4.525 1.875s1.875 2.828 1.875 4.526v4.8h-12.8v-4.8zM12.8 28.8c-0.558-0.003-1.106-0.153-1.589-0.433s-0.884-0.683-1.163-1.167h5.504c-0.279 0.484-0.68 0.886-1.163 1.167s-1.031 0.43-1.589 0.433zM22.4 24h-19.2v-1.6c0-0.424 0.169-0.831 0.469-1.131s0.707-0.469 1.131-0.469h16c0.424 0 0.831 0.169 1.131 0.469s0.469 0.707 0.469 1.131v1.6z"></path>
        </symbol>
        <symbol id="icon-logo-crypto" viewBox="0 0 32 32">
            <path d="M16 0c-3.165 0-6.258 0.938-8.889 2.696s-4.682 4.257-5.893 7.181c-1.211 2.924-1.528 6.141-0.91 9.244s2.141 5.955 4.379 8.192c2.238 2.238 5.089 3.761 8.192 4.379s6.321 0.3 9.244-0.91c2.924-1.211 5.423-3.262 7.181-5.893s2.696-5.725 2.696-8.889c0-4.243-1.686-8.313-4.686-11.314s-7.070-4.686-11.314-4.686zM16 29.091c-2.589 0-5.12-0.768-7.273-2.206s-3.831-3.483-4.822-5.875c-0.991-2.392-1.25-5.024-0.745-7.564s1.752-4.872 3.583-6.703c1.831-1.831 4.163-3.078 6.703-3.583s5.171-0.246 7.564 0.745c2.392 0.991 4.436 2.669 5.875 4.821s2.206 4.684 2.206 7.273c0 3.472-1.379 6.802-3.834 9.257s-5.785 3.834-9.257 3.834zM18.909 8.727v-1.455c0-0.386-0.153-0.756-0.426-1.029s-0.643-0.426-1.029-0.426c-0.386 0-0.756 0.153-1.029 0.426s-0.426 0.643-0.426 1.029v1.455h-1.455v-1.455c0-0.386-0.153-0.756-0.426-1.029s-0.643-0.426-1.029-0.426c-0.386 0-0.756 0.153-1.028 0.426s-0.426 0.643-0.426 1.029v1.455h-1.455c-0.386 0-0.756 0.153-1.028 0.426s-0.426 0.643-0.426 1.029c0 0.386 0.153 0.756 0.426 1.029s0.643 0.426 1.028 0.426h1.455v8.727h-1.455c-0.386 0-0.756 0.153-1.028 0.426s-0.426 0.643-0.426 1.029c0 0.386 0.153 0.756 0.426 1.029s0.643 0.426 1.028 0.426h1.455v1.455c0 0.386 0.153 0.756 0.426 1.029s0.643 0.426 1.028 0.426c0.386 0 0.756-0.153 1.029-0.426s0.426-0.643 0.426-1.029v-1.455h1.455v1.455c0 0.386 0.153 0.756 0.426 1.029s0.643 0.426 1.029 0.426c0.386 0 0.756-0.153 1.029-0.426s0.426-0.643 0.426-1.029v-1.455c1.157 0 2.267-0.46 3.086-1.278s1.278-1.928 1.278-3.086c-0.002-1.074-0.401-2.11-1.12-2.909 0.719-0.799 1.118-1.835 1.12-2.909 0-1.157-0.46-2.267-1.278-3.086s-1.928-1.278-3.086-1.278zM18.909 20.364h-4.364v-2.909h4.364c0.386 0 0.756 0.153 1.029 0.426s0.426 0.643 0.426 1.029c0 0.386-0.153 0.756-0.426 1.029s-0.643 0.426-1.029 0.426zM18.909 14.545h-4.364v-2.909h4.364c0.386 0 0.756 0.153 1.029 0.426s0.426 0.643 0.426 1.029c0 0.386-0.153 0.756-0.426 1.029s-0.643 0.426-1.029 0.426z"></path>
        </symbol>
        <symbol id="icon-documents" viewBox="0 0 26 32">
            <path d="M8 12.8h1.6c0.424 0 0.831-0.169 1.131-0.469s0.469-0.707 0.469-1.131c0-0.424-0.169-0.831-0.469-1.131s-0.707-0.469-1.131-0.469h-1.6c-0.424 0-0.831 0.169-1.131 0.469s-0.469 0.707-0.469 1.131c0 0.424 0.169 0.831 0.469 1.131s0.707 0.469 1.131 0.469zM8 16c-0.424 0-0.831 0.169-1.131 0.469s-0.469 0.707-0.469 1.131c0 0.424 0.169 0.831 0.469 1.131s0.707 0.469 1.131 0.469h9.6c0.424 0 0.831-0.169 1.131-0.469s0.469-0.707 0.469-1.131c0-0.424-0.169-0.831-0.469-1.131s-0.707-0.469-1.131-0.469h-9.6zM25.6 11.104c-0.017-0.147-0.049-0.292-0.096-0.432v-0.144c-0.077-0.165-0.18-0.316-0.304-0.448l-9.6-9.6c-0.132-0.124-0.284-0.227-0.448-0.304-0.048-0.007-0.096-0.007-0.144 0-0.163-0.093-0.342-0.153-0.528-0.176h-9.68c-1.273 0-2.494 0.506-3.394 1.406s-1.406 2.121-1.406 3.394v22.4c0 1.273 0.506 2.494 1.406 3.394s2.121 1.406 3.394 1.406h16c1.273 0 2.494-0.506 3.394-1.406s1.406-2.121 1.406-3.394v-16c0 0 0 0 0-0.096zM16 5.456l4.144 4.144h-2.544c-0.424 0-0.831-0.169-1.131-0.469s-0.469-0.707-0.469-1.131v-2.544zM22.4 27.2c0 0.424-0.169 0.831-0.469 1.131s-0.707 0.469-1.131 0.469h-16c-0.424 0-0.831-0.169-1.131-0.469s-0.469-0.707-0.469-1.131v-22.4c0-0.424 0.169-0.831 0.469-1.131s0.707-0.469 1.131-0.469h8v4.8c0 1.273 0.506 2.494 1.406 3.394s2.121 1.406 3.394 1.406h4.8v14.4zM17.6 22.4h-9.6c-0.424 0-0.831 0.169-1.131 0.469s-0.469 0.707-0.469 1.131c0 0.424 0.169 0.831 0.469 1.131s0.707 0.469 1.131 0.469h9.6c0.424 0 0.831-0.169 1.131-0.469s0.469-0.707 0.469-1.131c0-0.424-0.169-0.831-0.469-1.131s-0.707-0.469-1.131-0.469z"></path>
        </symbol>
        <symbol id="icon-history" viewBox="0 0 32 32">
            <path d="M16 0c-4.102 0.012-8.042 1.598-11.008 4.432v-2.832c0-0.424-0.169-0.831-0.469-1.131s-0.707-0.469-1.131-0.469c-0.424 0-0.831 0.169-1.131 0.469s-0.469 0.707-0.469 1.131v7.2c0 0.424 0.169 0.831 0.469 1.131s0.707 0.469 1.131 0.469h7.2c0.424 0 0.831-0.169 1.131-0.469s0.469-0.707 0.469-1.131c0-0.424-0.169-0.831-0.469-1.131s-0.707-0.469-1.131-0.469h-3.84c2.057-2.15 4.799-3.516 7.754-3.863s5.939 0.346 8.439 1.961c2.499 1.615 4.358 4.049 5.257 6.886s0.781 5.898-0.333 8.657c-1.114 2.759-3.154 5.044-5.77 6.462s-5.644 1.88-8.564 1.307c-2.92-0.573-5.549-2.145-7.435-4.447s-2.912-5.188-2.9-8.164c0-0.424-0.169-0.831-0.469-1.131s-0.707-0.469-1.131-0.469c-0.424 0-0.831 0.169-1.131 0.469s-0.469 0.707-0.469 1.131c0 3.164 0.938 6.258 2.696 8.889s4.257 4.682 7.181 5.893c2.924 1.211 6.141 1.528 9.244 0.911s5.955-2.141 8.192-4.379c2.238-2.238 3.761-5.089 4.379-8.192s0.3-6.321-0.911-9.244-3.262-5.422-5.893-7.181c-2.631-1.758-5.725-2.696-8.889-2.696zM16 9.6c-0.424 0-0.831 0.169-1.131 0.469s-0.469 0.707-0.469 1.131v4.8c0 0.424 0.169 0.831 0.469 1.131s0.707 0.469 1.131 0.469h3.2c0.424 0 0.831-0.169 1.131-0.469s0.469-0.707 0.469-1.131c0-0.424-0.169-0.831-0.469-1.131s-0.707-0.469-1.131-0.469h-1.6v-3.2c0-0.424-0.169-0.831-0.469-1.131s-0.707-0.469-1.131-0.469z"></path>
        </symbol>
        <symbol id="icon-close" viewBox="0 0 32 32">
            <path d="M21.864 10.136c-0.147-0.148-0.322-0.266-0.514-0.346s-0.399-0.122-0.608-0.122c-0.209 0-0.415 0.041-0.608 0.122s-0.368 0.198-0.514 0.346l-3.62 3.635-3.62-3.635c-0.298-0.298-0.701-0.465-1.122-0.465s-0.825 0.167-1.122 0.465c-0.298 0.298-0.465 0.701-0.465 1.122s0.167 0.825 0.465 1.122l3.635 3.62-3.635 3.62c-0.148 0.147-0.266 0.322-0.346 0.514s-0.122 0.399-0.122 0.608c0 0.209 0.041 0.415 0.122 0.608s0.198 0.367 0.346 0.514c0.147 0.148 0.322 0.266 0.514 0.346s0.399 0.122 0.608 0.122 0.415-0.041 0.608-0.122c0.193-0.080 0.367-0.198 0.514-0.346l3.62-3.635 3.62 3.635c0.147 0.148 0.322 0.266 0.514 0.346s0.399 0.122 0.608 0.122 0.415-0.041 0.608-0.122c0.193-0.080 0.367-0.198 0.514-0.346 0.148-0.147 0.266-0.322 0.346-0.514s0.122-0.399 0.122-0.608-0.041-0.415-0.122-0.608c-0.080-0.193-0.198-0.368-0.346-0.514l-3.635-3.62 3.635-3.62c0.148-0.147 0.266-0.322 0.346-0.514s0.122-0.399 0.122-0.608-0.041-0.415-0.122-0.608c-0.080-0.193-0.198-0.367-0.346-0.514zM27.175 4.825c-1.458-1.51-3.202-2.714-5.131-3.542s-4.002-1.264-6.101-1.283c-2.099-0.018-4.18 0.382-6.122 1.176s-3.707 1.968-5.191 3.452c-1.484 1.484-2.658 3.249-3.452 5.191s-1.195 4.024-1.176 6.122c0.018 2.099 0.454 4.173 1.283 6.101s2.032 3.672 3.542 5.131c1.458 1.51 3.202 2.714 5.13 3.542s4.002 1.264 6.101 1.283c2.099 0.018 4.18-0.382 6.122-1.176s3.707-1.968 5.191-3.452c1.484-1.484 2.658-3.249 3.452-5.191s1.195-4.024 1.176-6.122c-0.018-2.099-0.454-4.173-1.283-6.101s-2.032-3.672-3.542-5.13zM24.946 24.946c-2.067 2.070-4.788 3.358-7.699 3.647s-5.832-0.441-8.265-2.065-4.228-4.041-5.079-6.84c-0.851-2.799-0.705-5.806 0.412-8.509s3.138-4.936 5.717-6.316c2.579-1.381 5.557-1.825 8.426-1.256s5.453 2.115 7.311 4.374 2.874 5.094 2.876 8.019c0.006 1.662-0.318 3.308-0.953 4.844s-1.568 2.93-2.745 4.103z"></path>
        </symbol>
        <symbol id="icon-burger" viewBox="0 0 53 32">
            <path d="M2.667 5.333h48c0.707 0 1.386-0.281 1.886-0.781s0.781-1.178 0.781-1.886c0-0.707-0.281-1.386-0.781-1.886s-1.178-0.781-1.886-0.781h-48c-0.707 0-1.386 0.281-1.886 0.781s-0.781 1.178-0.781 1.886c0 0.707 0.281 1.386 0.781 1.886s1.178 0.781 1.886 0.781v0zM50.667 26.667h-48c-0.707 0-1.386 0.281-1.886 0.781s-0.781 1.178-0.781 1.886c0 0.707 0.281 1.386 0.781 1.886s1.178 0.781 1.886 0.781h48c0.707 0 1.386-0.281 1.886-0.781s0.781-1.178 0.781-1.886c0-0.707-0.281-1.386-0.781-1.886s-1.178-0.781-1.886-0.781zM50.667 13.333h-48c-0.707 0-1.386 0.281-1.886 0.781s-0.781 1.178-0.781 1.886c0 0.707 0.281 1.386 0.781 1.886s1.178 0.781 1.886 0.781h48c0.707 0 1.386-0.281 1.886-0.781s0.781-1.178 0.781-1.886c0-0.707-0.281-1.386-0.781-1.886s-1.178-0.781-1.886-0.781z"></path>
        </symbol>
    </defs>
</svg>
